Coordinates
version=1
nRows=8
nColumns=63
inDegrees=yes

Units are S.I. units (second, meters, Newtons, ...)
If the header above contains a line with 'inDegrees', this indicates whether rotational values are in degrees (yes) or radians (no).

endheader
time	pelvis_tilt	pelvis_list	pelvis_rotation	pelvis_tx	pelvis_ty	pelvis_tz	hip_flexion_r	hip_adduction_r	hip_rotation_r	knee_angle_r	knee_angle_r_beta	ankle_angle_r	subtalar_angle_r	mtp_angle_r	hip_flexion_l	hip_adduction_l	hip_rotation_l	knee_angle_l	knee_angle_l_beta	ankle_angle_l	subtalar_angle_l	mtp_angle_l	L5_S1_Flex_Ext	L5_S1_Lat_Bending	L5_S1_axial_rotation	L4_L5_Flex_Ext	L4_L5_Lat_Bending	L4_L5_axial_rotation	L3_L4_Flex_Ext	L3_L4_Lat_Bending	L3_L4_axial_rotation	L2_L3_Flex_Ext	L2_L3_Lat_Bending	L2_L3_axial_rotation	L1_L2_Flex_Ext	L1_L2_Lat_Bending	L1_L2_axial_rotation	L1_T12_Flex_Ext	L1_T12_Lat_Bending	L1_T12_axial_rotation	Abs_r3	Abs_r2	Abs_r1	Abs_t1	Abs_t2	neck_flexion	neck_bending	neck_rotation	arm_flex_r	arm_add_r	arm_rot_r	elbow_flex_r	pro_sup_r	wrist_flex_r	wrist_dev_r	arm_flex_l	arm_add_l	arm_rot_l	elbow_flex_l	pro_sup_l	wrist_flex_l	wrist_dev_l
4.444444	-15.003307	-23.849510	79.714731	0.304709	0.686731	0.687693	28.886394	-9.687237	10.056187	12.659401	0.220948	24.998694	-8.008409	0.000000	21.332246	7.644542	-7.235620	0.545411	0.009519	19.092098	6.219380	0.000000	-0.089056	0.234816	0.427854	-0.165385	0.312305	0.454595	-0.146310	0.570932	0.454595	-0.101782	0.570932	0.374372	-0.082697	0.478837	0.347631	-0.050886	0.363730	0.320891	-0.636117	2.656287	2.379596	0.000000	0.000000	15.913161	-4.851221	1.832776	3.459363	-6.231326	-3.732789	86.531042	89.160317	-20.540904	24.792893	-22.816011	-42.031664	-35.335427	149.952230	89.650622	23.643436	-13.729171
4.462963	-15.104657	-23.537691	79.288154	0.304711	0.687089	0.687631	28.793282	-9.701814	10.066628	12.937296	0.225798	25.316723	-7.287377	0.000000	21.055265	7.654535	-7.611950	0.556292	0.009709	19.142840	6.222707	0.000000	-0.098889	0.161301	0.604635	-0.183647	0.214531	0.642425	-0.162465	0.392188	0.642425	-0.113021	0.392188	0.529056	-0.091829	0.328926	0.491266	-0.056505	0.249856	0.453476	-0.706357	1.824674	3.362799	0.000000	0.000000	15.952657	-5.011838	-0.967554	2.172673	-5.608542	-4.850979	87.794135	89.125571	-19.952065	24.709557	-20.245370	-43.240108	-35.392178	149.952140	89.418740	27.180626	-14.002856
4.481481	-14.899027	-23.054823	79.174219	0.304539	0.688287	0.687007	28.243390	-9.610896	9.850571	12.959185	0.226180	25.337536	-6.705061	0.000000	20.508456	7.527271	-7.760622	0.571252	0.009970	19.076032	6.279549	0.000000	-0.113655	0.136282	0.970335	-0.211069	0.181255	1.030981	-0.186724	0.331356	1.030981	-0.129896	0.331356	0.849043	-0.105540	0.277906	0.788397	-0.064942	0.211101	0.727751	-0.811826	1.541651	5.396713	0.000000	0.000000	15.350015	-5.935240	-3.898206	0.301207	-5.758840	-7.059470	89.576309	89.109194	-19.180165	25.044199	-18.832651	-44.500921	-29.740430	149.952191	91.013676	32.295525	-14.129407
4.500000	-14.672861	-22.606226	79.062404	0.304396	0.689538	0.686200	27.683694	-9.499067	9.667480	12.925586	0.225594	25.243418	-6.216164	0.000000	19.986553	7.379065	-7.908189	0.601303	0.010495	18.967764	6.311484	0.000000	-0.126814	0.113588	1.249205	-0.235507	0.151072	1.327280	-0.208343	0.276177	1.327280	-0.144936	0.276177	1.093054	-0.117760	0.231628	1.014979	-0.072462	0.175947	0.936903	-0.905823	1.284927	6.947701	0.000000	0.000000	14.786221	-6.804490	-6.318663	-1.202418	-5.938642	-8.580191	91.127819	89.079036	-18.423768	25.512986	-17.992311	-45.536615	-25.213628	149.952078	91.611248	39.022974	-14.256832
4.518519	-14.457698	-22.237666	78.894692	0.304304	0.690701	0.685190	27.176682	-9.360802	9.566748	12.831985	0.223960	25.040447	-5.840703	0.000000	19.536646	7.210984	-8.111712	0.636840	0.011115	18.840972	6.330137	0.000000	-0.135462	0.092709	1.376073	-0.251566	0.123302	1.462078	-0.222550	0.225412	1.462078	-0.154819	0.225412	1.204064	-0.125790	0.189051	1.118059	-0.077403	0.143606	1.032055	-0.967589	1.048739	7.653306	0.000000	0.000000	14.357312	-7.492128	-7.811176	-2.131574	-6.035328	-8.931110	92.249738	89.029668	-17.826136	25.988348	-18.112495	-46.107774	-22.718141	149.951933	90.688468	47.094764	-14.259902
4.537037	-14.217460	-21.954546	78.721169	0.304207	0.691791	0.684013	26.726956	-9.187960	9.387510	12.694547	0.221562	24.818562	-5.379228	0.000000	19.162949	7.004237	-8.306677	0.681183	0.011889	18.701471	6.302434	0.000000	-0.139466	0.077631	1.371330	-0.259003	0.103249	1.457038	-0.229129	0.188752	1.457038	-0.159396	0.188752	1.199913	-0.129508	0.158305	1.114205	-0.079691	0.120250	1.028497	-0.996193	0.878177	7.626924	0.000000	0.000000	14.098742	-8.002511	-8.524981	-2.630319	-6.096901	-8.382407	93.043206	88.973129	-17.226036	26.526074	-19.302990	-46.418232	-22.035763	149.954197	89.013558	55.196840	-14.545838
4.555556	-13.969773	-21.705160	78.530128	0.304145	0.692874	0.682561	26.265593	-8.981238	9.391286	12.481402	0.217842	24.507568	-5.182919	0.000000	18.798872	6.778426	-8.600776	0.715761	0.012492	18.567415	6.364104	0.000000	-0.139925	0.065837	1.307586	-0.259854	0.087563	1.389311	-0.229882	0.160075	1.389311	-0.159920	0.160075	1.144138	-0.129934	0.134254	1.062414	-0.079953	0.101981	0.980690	-0.999467	0.744758	7.272404	0.000000	0.000000	13.941939	-8.456445	-8.846327	-2.990060	-6.280982	-7.380835	93.741081	88.915224	-16.690252	27.051797	-21.134362	-47.039273	-22.069171	149.985072	86.128427	62.246788	-13.577282
4.574074	-13.686000	-21.491881	78.344244	0.304073	0.693919	0.680856	25.791856	-8.732204	9.496975	12.192367	0.212797	24.177038	-5.141934	0.000000	18.443104	6.519876	-8.887726	0.742404	0.012957	18.447915	6.397648	0.000000	-0.136516	0.060044	1.180523	-0.253524	0.079859	1.254305	-0.224282	0.145991	1.254305	-0.156024	0.145991	1.032957	-0.126769	0.122442	0.959175	-0.078005	0.093008	0.885392	-0.975120	0.679232	6.565713	0.000000	0.000000	13.907129	-8.833093	-8.766342	-3.194377	-6.589250	-5.957884	94.330153	88.856983	-16.090818	27.623127	-23.525609	-47.912700	-22.470438	150.191101	83.537277	67.268280	-11.487108
